<?xml version="1.0" standalone="no"?>
<!DOCTYPE svg PUBLIC "-//W3C//DTD SVG 20010904//EN"
 "http://www.w3.org/TR/2001/REC-SVG-20010904/DTD/svg10.dtd">
<svg version="1.0" xmlns="http://www.w3.org/2000/svg"
 width="200.000000pt" height="92.000000pt" viewBox="0 0 200.000000 92.000000"
 preserveAspectRatio="xMidYMid meet">

<g transform="translate(0.000000,92.000000) scale(0.100000,-0.100000)"
fill="#000000" stroke="none">
<path d="M1876 654 c-9 -8 -16 -22 -16 -29 0 -7 7 -21 16 -29 30 -30 74 -13
74 29 0 42 -44 59 -74 29z"/>
<path d="M93 530 c-67 -40 -87 -110 -55 -183 11 -25 32 -53 46 -62 40 -27 110
-31 156 -10 39 17 77 60 62 68 -17 11 -60 11 -74 -1 -30 -24 -74 -26 -97 -3
-12 12 -21 26 -21 31 0 6 42 10 105 10 l105 0 0 31 c0 45 -28 96 -65 119 -43
26 -119 27 -162 0z m113 -48 c6 -4 16 -17 23 -29 12 -23 11 -23 -54 -23 -69 0
-79 8 -48 42 16 18 59 24 79 10z"/>
<path d="M433 530 c-18 -10 -39 -33 -48 -49 -20 -40 -19 -116 3 -153 35 -61
128 -85 198 -52 37 18 68 54 56 65 -15 15 -58 13 -82 -4 -33 -23 -62 -21 -88
6 -12 13 -22 26 -22 30 0 4 47 7 105 7 l105 0 0 35 c0 81 -59 135 -145 135
-32 0 -62 -7 -82 -20z m127 -60 c33 -33 24 -40 -45 -40 -69 0 -79 8 -48 42 21
24 68 23 93 -2z"/>
<path d="M1073 530 c-46 -27 -65 -63 -66 -118 -2 -116 106 -184 217 -138 73
30 106 143 63 210 -43 64 -147 87 -214 46z m140 -82 c17 -22 18 -33 11 -60
-19 -66 -99 -76 -129 -17 -43 82 63 151 118 77z"/>
<path d="M1545 528 c-76 -60 -71 -199 9 -250 37 -23 107 -20 136 7 18 16 20
17 20 2 0 -13 9 -17 40 -17 l40 0 0 135 0 135 -39 0 c-22 0 -41 -5 -43 -12 -3
-8 -11 -7 -28 5 -35 24 -101 22 -135 -5z m145 -68 c43 -43 9 -130 -51 -130
-34 0 -69 41 -69 79 0 61 77 94 120 51z"/>
<path d="M728 405 l47 -136 59 3 58 3 44 124 c24 68 44 128 44 133 0 5 -18 8
-41 6 l-41 -3 -32 -100 -32 -100 -32 103 -33 102 -44 0 -44 0 47 -135z"/>
<path d="M1870 405 l0 -135 40 0 40 0 0 135 0 135 -40 0 -40 0 0 -135z"/>
<path d="M1360 330 c-15 -29 -3 -59 26 -66 30 -8 54 11 54 40 0 46 -59 64 -80
26z"/>
</g>
</svg>
